HIERARCHY
ROOT joint_Root
{
	OFFSET 0.0 0.0 0.0
	CHANNELS 6 Xposition Yposition Zposition Zrotation Xrotation Yrotation 
	JOINT Hips
	{
		OFFSET 4.5925 91.4895 -427.239
		CHANNELS 6 Xposition Yposition Zposition Zrotation Xrotation Yrotation 
		JOINT Spine
		{
			OFFSET 15.7357 0.0 0.0
			CHANNELS 6 Xposition Yposition Zposition Zrotation Xrotation Yrotation 
			JOINT Chest
			{
				OFFSET 8.98455 -0.406207 0.0
				CHANNELS 6 Xposition Yposition Zposition Zrotation Xrotation Yrotation 
				JOINT Neck
				{
					OFFSET 16.3773 0.0 0.0
					CHANNELS 6 Xposition Yposition Zposition Zrotation Xrotation Yrotation 
					JOINT Head
					{
						OFFSET 6.45672 0.0 0.0
						CHANNELS 6 Xposition Yposition Zposition Zrotation Xrotation Yrotation 
						End Site
						{
							OFFSET 0.0 0.0 0.0
						}
					}
				}
				JOINT Shoulder_L
				{
					OFFSET 12.9942 -0.242716 4.98039
					CHANNELS 6 Xposition Yposition Zposition Zrotation Xrotation Yrotation 
					JOINT UpperArm_L
					{
						OFFSET 5.34809 0.0 0.0
						CHANNELS 6 Xposition Yposition Zposition Zrotation Xrotation Yrotation 
						JOINT LowerArm_L
						{
							OFFSET 24.3286 1.87007e-05 0.0
							CHANNELS 6 Xposition Yposition Zposition Zrotation Xrotation Yrotation 
							JOINT Hand_L
							{
								OFFSET 22.2916 0.0 0.0
								CHANNELS 6 Xposition Yposition Zposition Zrotation Xrotation Yrotation 
								End Site
								{
									OFFSET 0.0 0.0 0.0
								}
							}
						}
					}
				}
				JOINT Shoulder_R
				{
					OFFSET 12.9945 -0.242716 -4.98039
					CHANNELS 6 Xposition Yposition Zposition Zrotation Xrotation Yrotation 
					JOINT UpperArm_R
					{
						OFFSET -5.34813 0.0 0.0
						CHANNELS 6 Xposition Yposition Zposition Zrotation Xrotation Yrotation 
						JOINT LowerArm_R
						{
							OFFSET -24.3289 0.000322201 0.0
							CHANNELS 6 Xposition Yposition Zposition Zrotation Xrotation Yrotation 
							JOINT Hand_R
							{
								OFFSET -22.2915 -0.000108084 0.0
								CHANNELS 6 Xposition Yposition Zposition Zrotation Xrotation Yrotation 
								End Site
								{
									OFFSET 0.0 0.0 0.0
								}
							}
						}
					}
				}
			}
		}
		JOINT UpperLeg_L
		{
			OFFSET -2.19248 -6.46944 0.0
			CHANNELS 6 Xposition Yposition Zposition Zrotation Xrotation Yrotation 
			JOINT LowerLeg_L
			{
				OFFSET 39.0811 0.0 -1.23785e-05
				CHANNELS 6 Xposition Yposition Zposition Zrotation Xrotation Yrotation 
				JOINT Foot_L
				{
					OFFSET 40.9854 0.0 -1.26872e-05
					CHANNELS 6 Xposition Yposition Zposition Zrotation Xrotation Yrotation 
					JOINT Toes_L
					{
						OFFSET 11.7543 0.0 0.0
						CHANNELS 6 Xposition Yposition Zposition Zrotation Xrotation Yrotation 
						End Site
						{
							OFFSET 0.0 0.0 0.0
						}
					}
				}
			}
		}
		JOINT UpperLeg_R
		{
			OFFSET -2.19251 6.46944 0.0
			CHANNELS 6 Xposition Yposition Zposition Zrotation Xrotation Yrotation 
			JOINT LowerLeg_R
			{
				OFFSET -39.0811 -0.00228153 -0.0401928
				CHANNELS 6 Xposition Yposition Zposition Zrotation Xrotation Yrotation 
				JOINT Foot_R
				{
					OFFSET -40.9854 0.0 0.0
					CHANNELS 6 Xposition Yposition Zposition Zrotation Xrotation Yrotation 
					JOINT Toes_R
					{
						OFFSET -11.7543 0.0 0.0
						CHANNELS 6 Xposition Yposition Zposition Zrotation Xrotation Yrotation 
						End Site
						{
							OFFSET 0.0 0.0 0.0
						}
					}
				}
			}
		}
	}
}
MOTION
Frames:	6
Frame Time:	0.0333333
0.000000 0.000000 0.000000 0.000000 0.000000 -0.000000 -130.104000 89.069400 186.908000 116.309000 77.573200 -24.270000 15.735700 0.000005 -0.000001 103.836000 85.474200 -104.951000 8.984550 -0.406207 -0.000000 1.046650 2.229100 -2.248800 16.377300 -0.000001 -0.000001 -3.894830 -2.001710 2.976350 6.456720 -0.000001 -0.000000 -12.291900 -3.017030 6.079630 12.994200 -0.242716 4.980390 -91.001100 3.123150 -72.217300 5.348090 -0.000007 -0.000001 -73.963900 19.658600 -0.645902 24.328600 0.000019 0.000005 1.027270 32.856500 -1.895720 22.291600 -0.000001 0.000005 10.813900 4.916580 9.044230 12.994500 -0.242716 -4.980390 88.669800 8.703560 -81.276500 -5.348130 -0.000001 -0.000004 -60.273600 41.864500 -25.598600 -24.328900 0.000322 -0.000009 0.734083 1.016920 -35.858800 -22.291500 -0.000108 -0.000004 21.060900 5.443930 -4.424020 -2.192480 -6.469440 -0.000000 -179.394000 -1.789210 -21.863300 39.081100 -0.000007 -0.000012 0.018285 -0.009793 61.815100 40.985400 -0.000006 -0.000013 11.896900 -10.403500 -60.530700 11.754300 -0.000000 0.000003 -0.003978 -0.051214 -18.660000 -2.192510 6.469440 -0.000001 179.167000 7.229210 -176.767000 -39.081100 -0.002282 -0.040193 0.051270 -0.082295 30.237300 -40.985400 0.000008 0.000006 21.006400 12.264400 -79.127700 -11.754300 -0.000006 -0.000006 -0.781498 -0.919096 -21.406500
0.000000 0.000000 0.000000 0.000000 0.000000 -0.000000 -127.547000 89.551800 186.265000 109.589000 73.499900 -18.151900 15.735700 0.000005 -0.000001 111.411000 85.328800 -112.538000 8.984550 -0.406207 -0.000000 0.969096 3.476000 -2.280350 16.377300 -0.000001 -0.000001 -4.942570 -1.176310 2.650700 6.456720 -0.000001 -0.000000 -13.486200 -2.500480 5.806080 12.994200 -0.242716 4.980390 -90.691300 2.150820 -72.178000 5.348090 -0.000007 -0.000001 -75.154700 14.669600 5.429530 24.328600 0.000019 0.000005 0.000019 37.466800 -0.000005 22.291600 -0.000001 0.000005 9.548680 4.691430 13.315500 12.994500 -0.242716 -4.980390 89.112700 6.819210 -82.569100 -5.348130 -0.000001 -0.000004 -53.530000 44.269600 -38.298300 -24.328900 0.000322 -0.000009 1.530980 1.783680 -40.672000 -22.291500 -0.000108 -0.000004 20.516900 5.450660 -4.662970 -2.192480 -6.469440 -0.000000 -179.510000 -3.716540 -23.658000 39.081100 -0.000007 -0.000012 0.066894 -0.043536 56.940500 40.985400 -0.000006 -0.000013 10.125500 -7.477960 -63.563600 11.754300 -0.000000 0.000003 -0.004016 -0.051613 -18.676300 -2.192510 6.469440 -0.000001 176.530000 7.638960 -174.621000 -39.081100 -0.002282 -0.040193 0.039516 -0.069552 27.501500 -40.985400 0.000008 0.000006 21.447600 17.844000 -79.168100 -11.754300 -0.000006 -0.000006 -0.015447 -0.140611 -22.310700
0.000000 0.000000 0.000000 0.000000 0.000000 -0.000000 -124.813000 89.710500 185.698000 105.958000 70.656100 -15.153500 15.735700 0.000005 -0.000001 116.918000 85.212200 -117.989000 8.984550 -0.406207 -0.000000 0.817643 4.398360 -2.174110 16.377300 -0.000001 -0.000001 -5.847390 -0.721254 2.366520 6.456720 -0.000001 -0.000000 -14.672100 -2.347240 5.133350 12.994200 -0.242716 4.980390 -90.379300 1.178490 -72.159200 5.348090 -0.000007 -0.000001 -75.269600 11.509600 12.053100 24.328600 0.000019 0.000005 0.000052 37.471500 -0.000005 22.291600 -0.000001 0.000005 4.214210 4.633220 14.336400 12.994500 -0.242716 -4.980390 89.347800 5.365630 -83.059400 -5.348130 -0.000001 -0.000004 -47.533100 44.004400 -48.933600 -24.328900 0.000322 -0.000009 1.921620 1.860890 -45.951600 -22.291500 -0.000108 -0.000004 19.539700 5.433590 -4.062460 -2.192480 -6.469440 -0.000000 179.661000 -6.988800 -25.721300 39.081100 -0.000007 -0.000012 0.082223 -0.063184 52.457900 40.985400 -0.000006 -0.000013 8.966820 -5.150600 -65.336400 11.754300 -0.000000 0.000003 -0.003853 -0.049910 -18.606900 -2.192510 6.469440 -0.000001 174.210000 8.768440 -172.914000 -39.081100 -0.002282 -0.040193 0.030291 -0.055964 25.739100 -40.985400 0.000008 0.000006 21.918700 22.416200 -79.286100 -11.754300 -0.000006 -0.000006 -0.024183 -0.189445 -24.321900
0.000000 0.000000 0.000000 0.000000 0.000000 -0.000000 -121.921000 89.507400 185.129000 103.875000 68.755800 -13.880900 15.735700 0.000005 -0.000001 122.136000 85.120000 -123.146000 8.984550 -0.406207 -0.000000 0.550016 5.253590 -2.044560 16.377300 -0.000001 -0.000001 -6.668710 -0.619336 2.163350 6.456720 -0.000001 -0.000000 -15.495600 -2.534390 4.163350 12.994200 -0.242716 4.980390 -90.130800 0.397852 -71.797300 5.348090 -0.000007 -0.000001 -74.889300 10.671800 17.808500 24.328600 0.000019 0.000005 -0.000026 36.580100 -0.000004 22.291600 -0.000001 0.000005 0.038662 4.793910 11.429600 12.994500 -0.242716 -4.980390 89.492000 4.244460 -83.168600 -5.348130 -0.000001 -0.000004 -44.107000 41.772700 -55.778000 -24.328900 0.000322 -0.000009 2.638830 2.077890 -51.819800 -22.291500 -0.000108 -0.000004 19.211900 5.425210 -3.775340 -2.192480 -6.469440 -0.000000 177.832000 -10.973200 -28.074300 39.081100 -0.000007 -0.000012 0.069396 -0.060909 48.724900 40.985400 -0.000006 -0.000013 5.906960 -2.285790 -67.249000 11.754300 -0.000000 0.000003 -0.003755 -0.048879 -18.564900 -2.192510 6.469440 -0.000001 172.489000 8.778700 -172.107000 -39.081100 -0.002282 -0.040193 0.024853 -0.045228 25.468300 -40.985400 0.000008 0.000006 21.966400 24.872600 -79.387300 -11.754300 -0.000006 -0.000006 -0.034947 -0.239304 -26.389900
0.000000 0.000000 0.000000 0.000000 0.000000 -0.000000 -118.788000 88.950700 184.680000 102.025000 67.831000 -12.776100 15.735700 0.000005 -0.000001 126.237000 85.074600 -127.121000 8.984550 -0.406207 -0.000000 0.229493 5.879520 -1.778980 16.377300 -0.000001 -0.000001 -7.067190 -0.605467 1.969060 6.456720 -0.000001 -0.000000 -16.078000 -2.990030 3.570680 12.994200 -0.242716 4.980390 -89.889900 -0.317508 -70.872000 5.348090 -0.000007 -0.000001 -74.415800 11.178900 21.774800 24.328600 0.000019 0.000005 0.000021 34.145500 -0.000004 22.291600 -0.000001 0.000005 0.253313 4.927360 8.827960 12.994500 -0.242716 -4.980390 89.570100 3.542700 -83.076900 -5.348130 -0.000001 -0.000004 -42.764400 38.937300 -59.124900 -24.328900 0.000322 -0.000009 3.145110 1.952400 -58.210700 -22.291500 -0.000108 -0.000004 19.971400 5.424220 -3.741620 -2.192480 -6.469440 -0.000000 175.739000 -14.031500 -30.068700 39.081100 -0.000007 -0.000012 0.046630 -0.044996 46.019900 40.985400 -0.000006 -0.000013 3.852760 1.291970 -69.030000 11.754300 -0.000000 0.000003 -0.004072 -0.052192 -18.699900 -2.192510 6.469440 -0.000001 171.598000 7.766240 -171.673000 -39.081100 -0.002282 -0.040193 0.024892 -0.043306 26.490700 -40.985400 0.000008 0.000006 21.661800 25.601300 -79.326200 -11.754300 -0.000006 -0.000006 -0.049731 -0.296798 -28.796700
0.000000 0.000000 0.000000 0.000000 0.000000 -0.000000 -115.246000 88.062800 184.421000 100.863000 67.926000 -12.097500 15.735700 0.000005 -0.000001 128.804000 85.070600 -129.602000 8.984550 -0.406207 -0.000000 -0.035650 6.230800 -1.593320 16.377300 -0.000001 -0.000001 -7.020990 -0.847547 1.913040 6.456720 -0.000001 -0.000000 -16.326400 -3.539840 3.344390 12.994200 -0.242716 4.980390 -89.622700 -1.033540 -69.941600 5.348090 -0.000007 -0.000001 -73.306000 10.672900 23.690700 24.328600 0.000019 0.000005 0.000052 33.007800 -0.000004 22.291600 -0.000001 0.000005 4.110760 4.943040 8.507070 12.994500 -0.242716 -4.980390 89.579500 3.252890 -82.631000 -5.348130 -0.000001 -0.000004 -43.040900 36.110700 -59.694100 -24.328900 0.000322 -0.000009 3.229670 1.545200 -64.468900 -22.291500 -0.000108 -0.000004 21.479400 5.431050 -3.975080 -2.192480 -6.469440 -0.000000 173.423000 -15.994600 -31.177700 39.081100 -0.000007 -0.000012 0.025603 -0.026512 43.997700 40.985400 -0.000006 -0.000013 2.432210 3.366520 -68.591700 11.754300 -0.000000 0.000003 -0.004569 -0.057237 -18.905300 -2.192510 6.469440 -0.000001 170.665000 7.340000 -170.937000 -39.081100 -0.002282 -0.040193 0.026739 -0.043450 28.339500 -40.985400 0.000008 0.000006 21.411600 26.337100 -79.354400 -11.754300 -0.000006 -0.000006 -0.071785 -0.368307 -31.830800
